<?xml version="1.0" encoding="UTF-8" standalone="no"?>
<svg
   xmlns:dc="http://purl.org/dc/elements/1.1/"
   xmlns:cc="http://creativecommons.org/ns#"
   xmlns:rdf="http://www.w3.org/1999/02/22-rdf-syntax-ns#"
   xmlns:svg="http://www.w3.org/2000/svg"
   xmlns="http://www.w3.org/2000/svg"
   xmlns:sodipodi="http://sodipodi.sourceforge.net/DTD/sodipodi-0.dtd"
   xmlns:inkscape="http://www.inkscape.org/namespaces/inkscape"
   version="1.0"
   width="1200px"
   height="233px"
   viewBox="0 0 12000 2330"
   preserveAspectRatio="xMidYMid meet"
   id="svg27"
   sodipodi:docname="ic_header_white.svg"
   inkscape:version="1.0.1 (3bc2e813f5, 2020-09-07)">
  <metadata
     id="metadata33">
    <rdf:RDF>
      <cc:Work
         rdf:about="">
        <dc:format>image/svg+xml</dc:format>
        <dc:type
           rdf:resource="http://purl.org/dc/dcmitype/StillImage" />
        <dc:title></dc:title>
      </cc:Work>
    </rdf:RDF>
  </metadata>
  <defs
     id="defs31" />
  <sodipodi:namedview
     pagecolor="#ffffff"
     bordercolor="#666666"
     borderopacity="1"
     objecttolerance="10"
     gridtolerance="10"
     guidetolerance="10"
     inkscape:pageopacity="0"
     inkscape:pageshadow="2"
     inkscape:window-width="3840"
     inkscape:window-height="2066"
     id="namedview29"
     showgrid="false"
     inkscape:pagecheckerboard="true"
     inkscape:zoom="1.1875"
     inkscape:cx="424"
     inkscape:cy="113.97368"
     inkscape:window-x="2293"
     inkscape:window-y="-11"
     inkscape:window-maximized="1"
     inkscape:current-layer="svg27"
     inkscape:document-rotation="0" />
  <g
     id="layer101"
     fill="#888888"
     stroke="none"
     style="fill:#ffffff;fill-opacity:1">
    <path
       d="M3105 2319 c-227 -33 -355 -138 -355 -290 0 -126 75 -205 239 -252 l84 -24 -59 -27 c-72 -33 -100 -58 -114 -102 -27 -81 41 -156 189 -209 l36 -13 -30 -12 c-186 -74 -275 -196 -275 -375 0 -171 91 -299 260 -367 52 -21 72 -23 363 -26 l307 -3 0 45 0 46 -125 0 c-69 0 -125 4 -125 8 0 5 9 17 21 28 42 38 88 111 109 174 51 150 -10 325 -143 413 -50 33 -182 81 -297 107 -77 18 -156 55 -169 78 -6 12 -11 39 -11 60 0 32 6 45 29 65 35 29 51 33 256 51 188 18 254 30 315 61 57 29 83 57 111 120 46 102 23 233 -54 313 -104 108 -340 163 -562 131z m299 -104 c141 -30 228 -107 228 -202 0 -91 -47 -146 -159 -184 -60 -21 -86 -24 -218 -23 -134 1 -159 4 -230 27 -62 20 -89 36 -120 67 -39 40 -40 42 -40 115 0 86 15 113 87 158 84 52 306 73 452 42z m-33 -927 c108 -64 161 -155 161 -275 -1 -93 -32 -163 -99 -222 -157 -139 -395 -90 -481 97 -21 47 -24 65 -20 136 4 69 9 92 35 137 35 61 104 124 160 145 25 9 66 13 119 11 65 -3 89 -8 125 -29z"
       id="path2"
       style="fill:#ffffff;fill-opacity:1" />
    <path
       d="M9710 1474 l0 -856 288 4 c287 3 287 4 367 32 246 88 365 261 365 532 0 179 -58 322 -177 435 -78 75 -158 114 -274 135 -81 15 -104 16 -183 5 -49 -7 -107 -19 -128 -27 l-38 -13 0 304 0 305 -110 0 -110 0 0 -856z m595 85 c67 -34 132 -103 169 -179 29 -62 31 -71 31 -185 0 -108 -3 -125 -26 -175 -71 -151 -174 -200 -421 -200 l-128 0 0 355 0 355 40 20 c61 31 107 40 201 36 66 -3 98 -9 134 -27z"
       id="path4"
       style="fill:#ffffff;fill-opacity:1" />
    <path
       d="M10970 1474 l0 -856 288 4 c284 3 288 4 367 31 244 85 365 259 365 526 0 207 -63 350 -206 470 -110 92 -275 135 -427 112 -42 -7 -98 -18 -122 -26 l-45 -13 0 304 0 304 -110 0 -110 0 0 -856z m596 85 c68 -32 130 -98 167 -177 30 -64 32 -73 32 -188 0 -119 -1 -122 -35 -189 -72 -141 -170 -185 -412 -185 l-128 0 0 353 0 353 31 18 c87 52 255 59 345 15z"
       id="path6"
       style="fill:#ffffff;fill-opacity:1" />
    <path
       d="M4244 1755 c-34 -7 -79 -22 -101 -34 -61 -31 -133 -108 -167 -181 l-31 -65 -3 -427 -3 -428 55 0 55 0 3 398 c3 385 4 399 25 452 27 67 91 135 153 163 65 30 203 30 281 -1 64 -25 139 -94 194 -175 l35 -52 0 -392 0 -393 55 0 55 0 0 560 0 560 -55 0 -55 0 0 -74 c0 -41 -2 -81 -5 -89 -4 -9 -30 10 -83 63 -87 86 -120 104 -212 119 -82 14 -120 13 -196 -4z"
       id="path8"
       style="fill:#ffffff;fill-opacity:1" />
    <path
       d="M5318 1756 c-90 -24 -171 -98 -199 -183 -6 -21 -10 -69 -7 -117 3 -65 9 -90 32 -128 78 -133 236 -211 492 -244 l137 -18 -5 -108 c-7 -131 -30 -187 -96 -233 -40 -28 -51 -30 -145 -33 -117 -4 -166 10 -280 78 -36 22 -69 40 -72 40 -3 0 -5 -24 -3 -52 l3 -53 70 -37 c77 -41 216 -78 291 -78 73 0 173 28 227 63 26 18 62 54 80 82 l32 49 5 426 c3 234 9 431 13 438 13 20 32 14 103 -33 36 -25 68 -45 70 -45 2 0 4 17 4 38 0 27 -7 44 -22 58 -40 35 -103 71 -156 90 -48 17 -55 17 -80 4 -21 -12 -30 -27 -39 -70 -6 -30 -12 -56 -12 -58 -1 -2 -20 10 -43 26 -71 49 -147 83 -217 98 -80 17 -121 17 -183 0z m297 -125 c44 -22 97 -55 118 -74 l37 -35 0 -176 0 -176 -26 -6 c-44 -11 -174 6 -258 33 -167 56 -266 161 -266 283 0 79 76 169 161 191 65 16 148 2 234 -40z"
       id="path10"
       style="fill:#ffffff;fill-opacity:1" />
    <path
       d="M6570 1763 c-85 -11 -169 -36 -244 -74 -130 -65 -126 -57 -126 -227 l0 -145 63 60 c120 116 229 169 363 180 218 17 363 -155 280 -332 -41 -89 -104 -141 -354 -295 -162 -100 -238 -161 -284 -232 -87 -131 -97 -300 -26 -447 30 -64 131 -162 198 -193 172 -81 388 -72 573 24 l77 40 0 129 c0 71 -4 129 -8 129 -5 0 -35 -21 -68 -46 -155 -122 -342 -155 -481 -87 -80 40 -113 88 -113 166 0 126 68 200 325 352 271 161 379 282 407 459 37 242 -99 461 -327 523 -54 14 -199 24 -255 16z"
       id="path12"
       style="fill:#ffffff;fill-opacity:1" />
    <path
       d="M8768 1756 c-192 -52 -250 -294 -106 -451 68 -75 109 -97 316 -170 l177 -63 3 -65 c4 -87 -23 -148 -83 -182 -36 -22 -54 -25 -132 -25 -83 0 -95 3 -159 35 -39 20 -93 56 -121 80 -28 25 -54 45 -57 45 -3 0 -6 -49 -6 -109 l0 -108 43 -40 c107 -99 299 -138 466 -94 115 30 187 87 238 191 l28 55 3 360 c1 198 5 370 7 382 9 38 44 38 138 -2 15 -6 17 -1 17 47 l0 54 -54 27 c-78 40 -154 53 -221 38 -52 -12 -70 -26 -100 -76 -9 -16 -16 -14 -75 19 -65 35 -182 67 -243 65 -18 0 -53 -6 -79 -13z m306 -158 c88 -44 86 -39 86 -240 0 -98 -2 -178 -5 -178 -3 0 -23 9 -45 20 -22 11 -45 20 -52 20 -21 0 -155 66 -192 95 -47 36 -70 91 -64 158 11 134 138 192 272 125z"
       id="path14"
       style="fill:#ffffff;fill-opacity:1" />
    <path
       d="M10 885 l0 -855 65 0 65 0 0 805 0 805 426 0 425 0 -3 48 -3 47 -487 3 -488 2 0 -855z"
       id="path16"
       style="fill:#ffffff;fill-opacity:1" />
    <path
       d="M1170 1180 l0 -560 60 0 60 0 -2 558 -3 557 -57 3 -58 3 0 -561z"
       id="path18"
       style="fill:#ffffff;fill-opacity:1" />
    <path
       d="M1620 1180 l0 -560 60 0 60 0 0 98 1 97 21 -30 c104 -145 265 -215 431 -187 100 17 165 52 230 122 105 113 117 178 117 658 l0 362 -60 0 -60 0 0 -365 c0 -397 -4 -435 -53 -529 -54 -102 -152 -152 -281 -144 -119 8 -233 77 -318 192 l-28 39 0 404 0 403 -60 0 -60 0 0 -560z"
       id="path20"
       style="fill:#ffffff;fill-opacity:1" />
    <path
       d="M7410 1180 l0 -560 110 0 110 0 0 60 c0 65 6 72 36 38 67 -75 231 -136 337 -125 113 12 232 82 287 171 52 85 53 102 57 554 l4 422 -110 0 -111 0 0 -375 c0 -232 -4 -393 -11 -425 -40 -187 -271 -231 -430 -81 l-59 56 -2 410 -3 410 -107 3 -108 3 0 -561z"
       id="path22"
       style="fill:#ffffff;fill-opacity:1" />
    <path
       d="M1170 130 l0 -100 60 0 61 0 -3 98 -3 97 -57 3 -58 3 0 -101z"
       id="path24"
       style="fill:#ffffff;fill-opacity:1" />
  </g>
  <text
     xml:space="preserve"
     style="font-style:normal;font-weight:normal;font-size:480px;line-height:1.25;font-family:sans-serif;letter-spacing:0px;word-spacing:0px;fill:#ffffff;fill-opacity:1;stroke:none;stroke-width:10;"
     x="7705.2632"
     y="2214.6875"
     id="text844"><tspan
       sodipodi:role="line"
       id="tspan842"
       x="7705.2632"
       y="2214.6875"
       style="font-style:italic;font-variant:normal;font-weight:600;font-stretch:normal;font-size:480px;font-family:'Open Sans';-inkscape-font-specification:'Open Sans Semi-Bold Italic';stroke-width:10;fill:#ffffff;">Example</tspan></text>
</svg>
