<?xml version="1.0" encoding="UTF-8" standalone="no"?>
<svg
   xmlns:dc="http://purl.org/dc/elements/1.1/"
   xmlns:cc="http://creativecommons.org/ns#"
   xmlns:rdf="http://www.w3.org/1999/02/22-rdf-syntax-ns#"
   xmlns:svg="http://www.w3.org/2000/svg"
   xmlns="http://www.w3.org/2000/svg"
   xmlns:sodipodi="http://sodipodi.sourceforge.net/DTD/sodipodi-0.dtd"
   xmlns:inkscape="http://www.inkscape.org/namespaces/inkscape"
   width="20"
   height="20"
   viewBox="0 0 5.2916666 5.2916666"
   version="1.1"
   id="svg8"
   inkscape:version="1.0.1 (3bc2e813f5, 2020-09-07)"
   sodipodi:docname="icon_20px.svg"
   inkscape:export-filename="D:\Dropbox (The University of Manchester)\0. Work\9. RIT\Mobile Development Service\Artwork\Generic\iOS\AppIcon\icon20.png"
   inkscape:export-xdpi="96"
   inkscape:export-ydpi="96">
  <defs
     id="defs2">
    <marker
       style="overflow:visible"
       id="TriangleOutM"
       refX="0.0"
       refY="0.0"
       orient="auto"
       inkscape:stockid="TriangleOutM"
       inkscape:isstock="true">
      <path
         transform="scale(0.4)"
         style="fill-rule:evenodd;stroke:#ffffff;stroke-width:1pt;stroke-opacity:1;fill:#ffffff;fill-opacity:1"
         d="M 5.77,0.0 L -2.88,5.0 L -2.88,-5.0 L 5.77,0.0 z "
         id="path1053" />
    </marker>
    <marker
       style="overflow:visible"
       id="DiamondMend"
       refX="0.0"
       refY="0.0"
       orient="auto"
       inkscape:stockid="DiamondMend"
       inkscape:isstock="true">
      <path
         transform="scale(0.4) translate(-6.5,0)"
         style="fill-rule:evenodd;stroke:#ffffff;stroke-width:1pt;stroke-opacity:1;fill:#ffffff;fill-opacity:1"
         d="M 0,-7.0710768 L -7.0710894,0 L 0,7.0710589 L 7.0710462,0 L 0,-7.0710768 z "
         id="path1008" />
    </marker>
    <marker
       style="overflow:visible"
       id="EmptyDiamondM"
       refX="0.0"
       refY="0.0"
       orient="auto"
       inkscape:stockid="EmptyDiamondM"
       inkscape:isstock="true">
      <path
         transform="scale(0.4)"
         style="fill-rule:evenodd;fill:#ffffff;stroke:#ffffff;stroke-width:1pt;stroke-opacity:1"
         d="M 0,-7.0710768 L -7.0710894,0 L 0,7.0710589 L 7.0710462,0 L 0,-7.0710768 z "
         id="path1017" />
    </marker>
    <marker
       style="overflow:visible"
       id="EmptyDiamondL"
       refX="0.0"
       refY="0.0"
       orient="auto"
       inkscape:stockid="EmptyDiamondL"
       inkscape:isstock="true">
      <path
         transform="scale(0.8)"
         style="fill-rule:evenodd;fill:#ffffff;stroke:#ffffff;stroke-width:1pt;stroke-opacity:1"
         d="M 0,-7.0710768 L -7.0710894,0 L 0,7.0710589 L 7.0710462,0 L 0,-7.0710768 z "
         id="path1014" />
    </marker>
  </defs>
  <sodipodi:namedview
     id="base"
     pagecolor="#ffffff"
     bordercolor="#666666"
     borderopacity="1.0"
     inkscape:pageopacity="0.0"
     inkscape:pageshadow="2"
     inkscape:zoom="45.254834"
     inkscape:cx="0.15390686"
     inkscape:cy="11.645654"
     inkscape:document-units="mm"
     inkscape:current-layer="layer1"
     showgrid="false"
     units="px"
     inkscape:window-width="3840"
     inkscape:window-height="2066"
     inkscape:window-x="2293"
     inkscape:window-y="-11"
     inkscape:window-maximized="1"
     inkscape:pagecheckerboard="true"
     inkscape:document-rotation="0"
     inkscape:object-paths="false"
     inkscape:snap-global="true" />
  <metadata
     id="metadata5">
    <rdf:RDF>
      <cc:Work
         rdf:about="">
        <dc:format>image/svg+xml</dc:format>
        <dc:type
           rdf:resource="http://purl.org/dc/dcmitype/StillImage" />
        <dc:title></dc:title>
      </cc:Work>
    </rdf:RDF>
  </metadata>
  <g
     inkscape:label="Layer 1"
     inkscape:groupmode="layer"
     id="layer1"
     transform="translate(0,-291.70834)">
    <rect
       style="opacity:1;fill:#16b826;fill-opacity:1;stroke:none;stroke-width:0.0132292;stroke-linecap:round;stroke-linejoin:miter;stroke-miterlimit:4;stroke-dasharray:none;stroke-opacity:1"
       id="rect906"
       width="5.2916665"
       height="5.291667"
       x="7.9472862e-08"
       y="291.70834" />
    <g
       id="g1429">
      <path
         id="path1410"
         style="fill:#ffffff;fill-opacity:1;stroke:#ffffff;stroke-width:0.0500001;stroke-linecap:round;stroke-miterlimit:4;stroke-dasharray:none;stroke-opacity:1"
         d="M 7.6523438 4.1113281 C 7.4328175 4.1113281 6.9778627 4.4031049 6.9101562 4.8300781 L 6.7695312 6.0429688 L 2.6757812 6.0429688 C 2.3019352 6.0429688 2 6.3449547 2 6.71875 L 2 15.214844 C 2 15.58879 2.3019351 15.888672 2.6757812 15.888672 L 17.324219 15.888672 C 17.698064 15.888672 18 15.588639 18 15.214844 L 18 6.71875 C 18 6.3448035 17.698067 6.0429688 17.324219 6.0429688 L 13.234375 6.0429688 L 13.097656 4.8300781 C 13.029948 4.4031049 12.574995 4.1113281 12.355469 4.1113281 L 7.6523438 4.1113281 z M 10.070312 6.7480469 C 12.367758 6.7480469 14.230479 8.6107417 14.230469 10.908203 C 14.230458 13.205627 12.367744 15.068359 10.070312 15.068359 C 7.7728813 15.068359 5.9101672 13.205627 5.9101562 10.908203 C 5.910146 8.6107417 7.7728666 6.7480469 10.070312 6.7480469 z M 13.757812 6.7597656 L 17.234375 6.7597656 L 17.234375 7.7988281 L 13.757812 7.7988281 L 13.757812 6.7597656 z "
         transform="matrix(0.26458333,0,0,0.26458333,0,291.70834)" />
      <path
         id="path885"
         style="fill:#ffffff;stroke:#ffffff;stroke-width:0.0132292;stroke-linecap:round;stroke-linejoin:miter;stroke-miterlimit:4;stroke-dasharray:none;stroke-opacity:1"
         d="m 2.185811,295.09331 c -0.1642599,0.18983 -0.2871534,0.23316 -0.2871534,0.23316 0,0 0.065718,0.0332 0.1444076,0.0213 0.1357721,-0.0205 0.3000126,-0.14119 0.3000126,-0.14119 m -0.157103,-0.11315 c -0.131149,-0.12583 -0.2127914,-0.30286 -0.212791,-0.49896 -7e-7,-0.38184 0.3095403,-0.69138 0.6913787,-0.69138 0.3818384,0 0.6913794,0.30954 0.6913787,0.69138 v 4e-5 c 7e-7,0.38184 -0.3095403,0.69138 -0.6913787,0.69138 -0.1157033,0 -0.2256587,-0.029 -0.3214847,-0.0793"
         sodipodi:nodetypes="ccccccssssc" />
    </g>
  </g>
</svg>
